<?xml version="1.0" encoding="UTF-8" standalone="no"?><!DOCTYPE svg PUBLIC "-//W3C//DTD SVG 1.1//EN" "http://www.w3.org/Graphics/SVG/1.1/DTD/svg11.dtd"><svg width="100%" height="100%" viewBox="0 0 21 21" version="1.1" xmlns="http://www.w3.org/2000/svg" xmlns:xlink="http://www.w3.org/1999/xlink" xml:space="preserve" xmlns:serif="http://www.serif.com/" style="fill-rule:evenodd;clip-rule:evenodd;stroke-linejoin:round;stroke-miterlimit:1.41421;"><rect id="codein-core" serif:id="codein core" x="0.073" y="0.55" width="20" height="20" style="fill:none;"/><path d="M10.073,0.55c5.519,0 10,4.48 10,10c0,5.519 -4.481,10 -10,10c-5.519,0 -10,-4.481 -10,-10c0,-5.52 4.481,-10 10,-10Zm4.86,13.529c0,0 -1.511,3.137 -5.298,3.137c-3.786,0 -5.303,-3.137 -5.303,-3.137l0,-1.176l0,-2.353c0,0 1.517,-3.138 5.303,-3.138c0.161,0 0.318,0.006 0.47,0.017l-1.351,2.397c-2.182,0.302 -3.473,1.683 -4.053,2.488c0.654,0.908 2.212,2.548 4.932,2.548c2.719,0 4.277,-1.64 4.932,-2.548c-0.275,-0.381 -0.71,-0.892 -1.323,-1.356l0.877,-1.558c0.56,0.623 0.814,1.15 0.814,1.15l0,3.529Zm-4.422,-0.784l5.303,-9.412l-2.297,0l-5.303,9.412l2.297,0Z" style="fill:#fff;"/></svg>